<?xml version="1.0" encoding="UTF-8"?>
<!DOCTYPE svg PUBLIC "-//W3C//DTD SVG 1.1//EN" "http://www.w3.org/Graphics/SVG/1.1/DTD/svg11.dtd">
<svg xmlns="http://www.w3.org/2000/svg" version="1.1" width="52px" height="52px" style="shape-rendering:geometricPrecision; text-rendering:geometricPrecision; image-rendering:optimizeQuality; fill-rule:evenodd; clip-rule:evenodd" xmlns:xlink="http://www.w3.org/1999/xlink">
<g><path style="opacity:0.984" fill="#1b98a7" d="M 15.5,-0.5 C 22.1667,-0.5 28.8333,-0.5 35.5,-0.5C 36.3686,1.71702 36.702,4.05035 36.5,6.5C 36.5,9.16667 36.5,11.8333 36.5,14.5C 36.5,15.1667 36.5,15.8333 36.5,16.5C 36.5,17.5 36.5,18.5 36.5,19.5C 35.5,19.5 34.5,19.5 33.5,19.5C 32.8333,19.5 32.1667,19.5 31.5,19.5C 27.5,19.5 23.5,19.5 19.5,19.5C 18.8333,19.5 18.1667,19.5 17.5,19.5C 16.5,19.5 15.5,19.5 14.5,19.5C 14.5,18.5 14.5,17.5 14.5,16.5C 14.5,15.8333 14.5,15.1667 14.5,14.5C 14.5,11.8333 14.5,9.16667 14.5,6.5C 14.298,4.05035 14.6314,1.71702 15.5,-0.5 Z M 34.5,4.5 C 28.5,3.16667 22.5,3.16667 16.5,4.5C 16.9528,3.54163 17.6195,2.7083 18.5,2C 23.1667,1.33333 27.8333,1.33333 32.5,2C 33.3805,2.7083 34.0472,3.54163 34.5,4.5 Z"/></g>
<g><path style="opacity:0.99" fill="#b5e1ec" d="M 34.5,4.5 C 34.5,7.83333 34.5,11.1667 34.5,14.5C 33.5,14.5 32.5,14.5 31.5,14.5C 31.5,15.5 31.5,16.5 31.5,17.5C 27.5,17.5 23.5,17.5 19.5,17.5C 19.5,16.5 19.5,15.5 19.5,14.5C 18.5,14.5 17.5,14.5 16.5,14.5C 16.5,11.1667 16.5,7.83333 16.5,4.5C 22.5,3.16667 28.5,3.16667 34.5,4.5 Z"/></g>
<g><path style="opacity:0.984" fill="#b5e1ec" d="M 14.5,6.5 C 14.5,9.16667 14.5,11.8333 14.5,14.5C 11.8333,14.5 9.16667,14.5 6.5,14.5C 8.16667,10.8333 10.8333,8.16667 14.5,6.5 Z"/></g>
<g><path style="opacity:0.987" fill="#b5e2ed" d="M 36.5,6.5 C 40.1667,8.16667 42.8333,10.8333 44.5,14.5C 41.8333,14.5 39.1667,14.5 36.5,14.5C 36.5,11.8333 36.5,9.16667 36.5,6.5 Z"/></g>
<g><path style="opacity:1" fill="#0d6063" d="M 16.5,14.5 C 17.5,14.5 18.5,14.5 19.5,14.5C 19.5,15.5 19.5,16.5 19.5,17.5C 17.5,17.5 16.5,16.5 16.5,14.5 Z"/></g>
<g><path style="opacity:1" fill="#63c9db" d="M 34.5,14.5 C 34.5,15.5 34.5,16.5 34.5,17.5C 33.5,17.5 32.5,17.5 31.5,17.5C 31.5,16.5 31.5,15.5 31.5,14.5C 32.5,14.5 33.5,14.5 34.5,14.5 Z"/></g>
<g><path style="opacity:0.961" fill="#0d6064" d="M 6.5,14.5 C 9.16667,14.5 11.8333,14.5 14.5,14.5C 14.5,15.1667 14.5,15.8333 14.5,16.5C 11.1667,16.5 7.83333,16.5 4.5,16.5C 3.54163,16.9528 2.7083,17.6195 2,18.5C 1.33333,23.1667 1.33333,27.8333 2,32.5C 2.7083,33.3805 3.54163,34.0472 4.5,34.5C 7.83333,34.5 11.1667,34.5 14.5,34.5C 14.5,35.1667 14.5,35.8333 14.5,36.5C 11.8333,36.5 9.16667,36.5 6.5,36.5C 4.05035,36.702 1.71702,36.3686 -0.5,35.5C -0.5,28.8333 -0.5,22.1667 -0.5,15.5C 1.71702,14.6314 4.05035,14.298 6.5,14.5 Z"/></g>
<g><path style="opacity:0.989" fill="#b5e1ed" d="M 4.5,16.5 C 7.83333,16.5 11.1667,16.5 14.5,16.5C 14.5,17.5 14.5,18.5 14.5,19.5C 15.5,19.5 16.5,19.5 17.5,19.5C 17.5,23.5 17.5,27.5 17.5,31.5C 16.5,31.5 15.5,31.5 14.5,31.5C 14.5,32.5 14.5,33.5 14.5,34.5C 11.1667,34.5 7.83333,34.5 4.5,34.5C 3.16667,28.5 3.16667,22.5 4.5,16.5 Z"/></g>
<g><path style="opacity:0.993" fill="#b5e1ed" d="M 36.5,16.5 C 39.8333,16.5 43.1667,16.5 46.5,16.5C 47.8333,22.5 47.8333,28.5 46.5,34.5C 43.1667,34.5 39.8333,34.5 36.5,34.5C 36.5,33.5 36.5,32.5 36.5,31.5C 35.5,31.5 34.5,31.5 33.5,31.5C 33.5,27.5 33.5,23.5 33.5,19.5C 34.5,19.5 35.5,19.5 36.5,19.5C 36.5,18.5 36.5,17.5 36.5,16.5 Z"/></g>
<g><path style="opacity:1" fill="#0d6063" d="M 17.5,19.5 C 18.1667,19.5 18.8333,19.5 19.5,19.5C 19.5,23.5 19.5,27.5 19.5,31.5C 18.8333,31.5 18.1667,31.5 17.5,31.5C 17.5,27.5 17.5,23.5 17.5,19.5 Z"/></g>
<g><path style="opacity:1" fill="#b5e2ec" d="M 19.5,19.5 C 23.5,19.5 27.5,19.5 31.5,19.5C 31.5,23.5 31.5,27.5 31.5,31.5C 27.5,31.5 23.5,31.5 19.5,31.5C 19.5,27.5 19.5,23.5 19.5,19.5 Z"/></g>
<g><path style="opacity:0.992" fill="#3ac0d6" d="M 36.5,14.5 C 39.1667,14.5 41.8333,14.5 44.5,14.5C 46.9496,14.298 49.283,14.6314 51.5,15.5C 51.5,22.1667 51.5,28.8333 51.5,35.5C 49.283,36.3686 46.9496,36.702 44.5,36.5C 41.8333,36.5 39.1667,36.5 36.5,36.5C 36.5,39.1667 36.5,41.8333 36.5,44.5C 36.702,46.9496 36.3686,49.283 35.5,51.5C 28.8333,51.5 22.1667,51.5 15.5,51.5C 14.6314,49.283 14.298,46.9496 14.5,44.5C 14.5,41.8333 14.5,39.1667 14.5,36.5C 14.5,35.8333 14.5,35.1667 14.5,34.5C 14.5,33.5 14.5,32.5 14.5,31.5C 15.5,31.5 16.5,31.5 17.5,31.5C 18.1667,31.5 18.8333,31.5 19.5,31.5C 23.5,31.5 27.5,31.5 31.5,31.5C 31.5,27.5 31.5,23.5 31.5,19.5C 32.1667,19.5 32.8333,19.5 33.5,19.5C 33.5,23.5 33.5,27.5 33.5,31.5C 34.5,31.5 35.5,31.5 36.5,31.5C 36.5,32.5 36.5,33.5 36.5,34.5C 39.8333,34.5 43.1667,34.5 46.5,34.5C 47.4584,34.0472 48.2917,33.3805 49,32.5C 49.6667,27.8333 49.6667,23.1667 49,18.5C 48.2917,17.6195 47.4584,16.9528 46.5,16.5C 43.1667,16.5 39.8333,16.5 36.5,16.5C 36.5,15.8333 36.5,15.1667 36.5,14.5 Z M 16.5,46.5 C 22.5,47.8333 28.5,47.8333 34.5,46.5C 34.0472,47.4584 33.3805,48.2917 32.5,49C 27.8333,49.6667 23.1667,49.6667 18.5,49C 17.6195,48.2917 16.9528,47.4584 16.5,46.5 Z"/></g>
<g><path style="opacity:1" fill="#0d6063" d="M 19.5,33.5 C 19.5,34.5 19.5,35.5 19.5,36.5C 18.5,36.5 17.5,36.5 16.5,36.5C 16.5,34.5 17.5,33.5 19.5,33.5 Z"/></g>
<g><path style="opacity:0.983" fill="#b5e1ed" d="M 19.5,33.5 C 23.5,33.5 27.5,33.5 31.5,33.5C 31.5,34.5 31.5,35.5 31.5,36.5C 32.5,36.5 33.5,36.5 34.5,36.5C 34.5,39.8333 34.5,43.1667 34.5,46.5C 28.5,47.8333 22.5,47.8333 16.5,46.5C 16.5,43.1667 16.5,39.8333 16.5,36.5C 17.5,36.5 18.5,36.5 19.5,36.5C 19.5,35.5 19.5,34.5 19.5,33.5 Z"/></g>
<g><path style="opacity:0.947" fill="#b6e2ed" d="M 6.5,36.5 C 9.16667,36.5 11.8333,36.5 14.5,36.5C 14.5,39.1667 14.5,41.8333 14.5,44.5C 10.8333,42.8333 8.16667,40.1667 6.5,36.5 Z"/></g>
<g><path style="opacity:0.956" fill="#b6e2ed" d="M 44.5,36.5 C 42.8333,40.1667 40.1667,42.8333 36.5,44.5C 36.5,41.8333 36.5,39.1667 36.5,36.5C 39.1667,36.5 41.8333,36.5 44.5,36.5 Z"/></g>
</svg>
